<svg height="512pt" viewBox="-19 0 512 512" width="512pt" xmlns="http://www.w3.org/2000/svg"><path d="m471.722656 250.25-18.042968-15.277344c.09375-.59375.125-1.203125.070312-1.828125-5.605469-63.328125-34.523438-122.042969-81.429688-165.324219-47.175781-43.535156-108.53125-67.621093-172.757812-67.820312-.007812 0-.015625 0-.023438 0-1.992187 0-3.90625.789062-5.320312 2.199219-1.417969 1.414062-2.214844 3.332031-2.214844 5.335937v21.941406l-62.078125 72.757813c-2.699219 3.167969-2.324219 7.925781.84375 10.625 1.417969 1.210937 3.15625 1.800781 4.886719 1.800781 2.128906 0 4.246094-.898437 5.734375-2.644531l62.375-73.105469c42.703125 1.488282 84.820313 22.765625 119.03125 60.261719 31.527344 34.550781 53.273437 79.660156 60.421875 124.898437-3.425781.710938-6.003906 3.742188-6.003906 7.382813v17.011719h-251.285156l-10.433594-18.074219c-1.34375-2.328125-3.832032-3.765625-6.523438-3.765625h-23.097656c-4.160156 0-7.535156 3.371094-7.535156 7.535156v14.304688h-11.421875c-.019531 0-.035157 0-.050781 0l-16.90625-29.28125 69.082031-80.972656c2.699219-3.164063 2.324219-7.921876-.84375-10.621094-3.164063-2.703125-7.921875-2.324219-10.621094.839844l-73.71875 86.40625h-26.324219c-4.160156 0-7.535156 3.371093-7.535156 7.535156v67.261718c0 4.160157 3.375 7.535157 7.535156 7.535157h25.433594l159.035156 191.925781v15.371094c0 2.003906.796875 3.921875 2.214844 5.335937 1.414062 1.410157 3.328125 2.199219 5.320312 2.199219h.023438c64.863281-.203125 126.660156-24.703125 174.015625-68.988281 46.730469-43.703125 75.210937-102.664063 80.328125-166.179688l17.816406-15.082031c1.691406-1.429688 2.664063-3.535156 2.664063-5.75s-.976563-4.320312-2.664063-5.75zm-264.648437-226.285156v-8.753906c57.6875 1.972656 112.480469 24.425781 155.027343 63.683593 41.527344 38.320313 68.066407 89.484375 75.460938 145.023438h-39.125c-7.25-48.835938-30.527344-97.664063-64.507812-134.902344-36.246094-39.726563-81.027344-62.621094-126.855469-65.050781zm-113.664063 217.730468h11.210938l8.257812 14.304688-8.257812 14.304688h-11.210938zm-78.339844-11.789062h21.777344c.15625.007812.3125.019531.46875.019531.125 0 .253906-.015625.378906-.019531h1.054688l15.066406 26.09375-15.066406 26.09375h-23.679688zm348.214844 202.097656c-42.722656 39.953125-97.941406 62.792969-156.210937 64.785156v-8.75c28.542969-1.472656 56.304687-10.710937 82.628906-27.503906 26.101563-16.648437 49.800781-40.457031 68.539063-68.839844 2.292968-3.472656 1.335937-8.148437-2.136719-10.441406-3.472657-2.292968-8.148438-1.335937-10.441407 2.136719-17.582031 26.632813-39.734374 48.917969-64.066406 64.4375-26.1875 16.707031-53.804687 25.234375-82.089844 25.347656-.359374 0-.707031.035157-1.054687.085938l-148.921875-179.726563c.03125-.046875.066406-.089844.09375-.136718l17.242188-29.863282h.050781 11.421875v14.304688c0 4.164062 3.375 7.535156 7.535156 7.535156h23.09375c2.695312 0 5.179688-1.4375 6.527344-3.765625l10.433594-18.074219h251.285156v17.011719c0 3.636719 2.574218 6.667969 5.996094 7.378906-3.675782 23.164063-11.285157 46.792969-22.222657 68.824219-1.851562 3.730469-.328125 8.25 3.398438 10.101562 1.078125.535157 2.21875.789063 3.347656.789063 2.769531 0 5.4375-1.535156 6.753906-4.1875 11.957031-24.082031 20.171875-50 23.949219-75.371094h39.113281c-7.316406 54.988281-33.359375 105.664063-74.265625 143.921875zm71.8125-158.992187h-42.8125v-34.023438h42.8125l20.089844 17.011719zm0 0"/></svg>